<svg width="168" height="81" viewBox="0 0 168 81" fill="none" xmlns="http://www.w3.org/2000/svg">
<path d="M0 0.791998H5.256V45.72H5.544L9.648 8.856H12.744L17.568 45.72H17.928V0.791998H22.968L20.376 51.912H15.84L11.448 21.888H11.16L6.768 51.912H2.808L0 0.791998Z" fill="#FAFF73"/>
<path d="M26.5736 48.888V12.312L29.6696 10.008H38.6696L41.5496 12.024V49.32L37.0136 51.912H30.8216L26.5736 48.888ZM35.7896 47.376C36.0776 47.376 36.2456 47.352 36.2936 47.304C36.3896 47.208 36.4376 47.088 36.4376 46.944L37.1576 14.4C37.1576 14.16 37.1096 13.992 37.0136 13.896C36.9656 13.8 36.7976 13.752 36.5096 13.752H32.0456C31.6136 13.752 31.3976 13.968 31.3976 14.4V46.944C31.3976 47.088 31.4216 47.208 31.4696 47.304C31.5656 47.352 31.7576 47.376 32.0456 47.376H35.7896Z" fill="#FAFF73"/>
<path d="M48.4509 14.328L46.9389 13.464V10.008H60.4749L60.6189 20.664H57.5229C57.5229 20.136 57.3789 18.96 57.0909 17.136C56.8029 15.264 56.5149 14.328 56.2269 14.328L52.2669 14.256L53.2029 51.912H48.4509V14.328Z" fill="#FAFF73"/>
<path d="M65.3962 4.752L63.8843 3.24V0.791998H69.5003L70.0042 48.096L71.3002 48.888L71.3723 51.912H64.9642L65.3962 4.752Z" fill="#FAFF73"/>
<path d="M76.5692 49.32L76.4252 13.896L79.4492 10.008H86.1452L86.0732 0H91.2572L90.8252 47.448L92.8412 48.888V51.912H80.2412L76.5692 49.32ZM85.3532 47.376C85.7852 47.376 86.0012 47.16 86.0012 46.728V14.904C86.0012 14.712 85.9532 14.592 85.8572 14.544C85.8092 14.496 85.6412 14.472 85.3532 14.472H82.3292C82.0412 14.472 81.8492 14.496 81.7532 14.544C81.7052 14.592 81.6812 14.712 81.6812 14.904L80.9612 46.728C80.9612 46.968 80.9852 47.136 81.0332 47.232C81.1292 47.328 81.3212 47.376 81.6092 47.376H85.3532Z" fill="#FAFF73"/>
<path d="M115.681 51.912C113.233 51.912 111.409 51.504 110.209 50.688C109.009 49.824 108.409 48.744 108.409 47.448V4.824C108.409 3.672 108.913 2.712 109.921 1.944C110.929 1.176 112.345 0.791998 114.169 0.791998H125.977V4.824L124.825 13.824H120.073L119.353 5.688C119.305 5.256 119.017 5.04 118.489 5.04H115.465C114.409 5.04 113.713 5.448 113.377 6.264C113.089 7.032 112.969 8.136 113.017 9.576L114.529 45.504C114.529 45.792 114.673 45.936 114.961 45.936H119.209C119.737 45.936 120.025 45.792 120.073 45.504L121.513 39.888H125.977V51.912H115.681Z" fill="#FAFF73"/>
<path d="M131.55 49.608V12.312L133.566 9.936H136.374V47.088C136.374 47.52 136.59 47.736 137.022 47.736H141.486C141.774 47.736 141.942 47.688 141.99 47.592C142.086 47.496 142.134 47.328 142.134 47.088L141.414 10.008H146.526V49.896L143.646 51.912H134.646L131.55 49.608Z" fill="#FAFF73"/>
<path d="M153.355 14.04L152.059 12.744V10.008H164.012C165.404 10.008 166.363 10.224 166.891 10.656C167.419 11.04 167.684 11.688 167.684 12.6L167.827 48.024C167.827 49.272 167.54 50.232 166.964 50.904C166.436 51.576 165.715 51.912 164.803 51.912H158.107L158.251 61.128H152.924L153.355 14.04ZM162.643 47.448C162.931 47.448 163.1 47.4 163.148 47.304C163.244 47.208 163.292 47.04 163.292 46.8L162.572 14.976C162.572 14.784 162.524 14.664 162.428 14.616C162.38 14.568 162.212 14.544 161.924 14.544H158.9C158.612 14.544 158.42 14.568 158.324 14.616C158.276 14.664 158.251 14.784 158.251 14.976V46.8C158.251 47.232 158.468 47.448 158.9 47.448H162.643Z" fill="#FAFF73"/>
<path d="M68.8024 62.8495V79.912H66.5407V62.8495H68.8024Z" fill="#D7D7D7"/>
<path d="M74.7555 69.9393V79.912H72.5875V67.2323H74.6383L74.7555 69.9393ZM74.2399 73.0917L73.3375 73.0565C73.3453 72.1893 73.4743 71.3886 73.7243 70.6542C73.9743 69.912 74.3258 69.2675 74.7789 68.7206C75.2321 68.1737 75.7711 67.7518 76.3961 67.455C77.0289 67.1503 77.7282 66.9979 78.4938 66.9979C79.1188 66.9979 79.6813 67.0839 80.1813 67.2558C80.6813 67.4198 81.1071 67.6854 81.4586 68.0526C81.818 68.4198 82.0914 68.8964 82.2789 69.4823C82.4664 70.0604 82.5602 70.7675 82.5602 71.6034V79.912H80.3805V71.58C80.3805 70.9159 80.2828 70.3847 80.0875 69.9862C79.8922 69.58 79.6071 69.287 79.2321 69.1073C78.8571 68.9198 78.3961 68.8261 77.8493 68.8261C77.3102 68.8261 76.818 68.9393 76.3727 69.1659C75.9352 69.3925 75.5563 69.705 75.236 70.1034C74.9235 70.5018 74.6774 70.9589 74.4977 71.4745C74.3258 71.9823 74.2399 72.5214 74.2399 73.0917Z" fill="#D7D7D7"/>
<path d="M89.0875 79.912H86.9196V65.8964C86.9196 64.9823 87.0836 64.2128 87.4118 63.5878C87.7477 62.955 88.2282 62.4784 88.8532 62.1581C89.4782 61.83 90.2203 61.6659 91.0797 61.6659C91.3297 61.6659 91.5797 61.6815 91.8297 61.7128C92.0875 61.744 92.3375 61.7909 92.5797 61.8534L92.4625 63.6229C92.2985 63.5839 92.111 63.5565 91.9 63.5409C91.6969 63.5253 91.4938 63.5175 91.2907 63.5175C90.8297 63.5175 90.4313 63.6112 90.0953 63.7987C89.7672 63.9784 89.5172 64.244 89.3453 64.5956C89.1735 64.9472 89.0875 65.3808 89.0875 65.8964V79.912ZM91.7828 67.2323V68.8964H84.9157V67.2323H91.7828Z" fill="#D7D7D7"/>
<path d="M93.6227 73.7128V73.4433C93.6227 72.5292 93.7555 71.6815 94.0211 70.9003C94.2868 70.1112 94.6696 69.4276 95.1696 68.8495C95.6696 68.2636 96.275 67.8104 96.986 67.4901C97.6969 67.162 98.4938 66.9979 99.3766 66.9979C100.267 66.9979 101.068 67.162 101.779 67.4901C102.498 67.8104 103.107 68.2636 103.607 68.8495C104.115 69.4276 104.502 70.1112 104.767 70.9003C105.033 71.6815 105.166 72.5292 105.166 73.4433V73.7128C105.166 74.6268 105.033 75.4745 104.767 76.2558C104.502 77.037 104.115 77.7206 103.607 78.3065C103.107 78.8847 102.502 79.3378 101.791 79.6659C101.088 79.9862 100.291 80.1464 99.4 80.1464C98.5094 80.1464 97.7086 79.9862 96.9977 79.6659C96.2868 79.3378 95.6774 78.8847 95.1696 78.3065C94.6696 77.7206 94.2868 77.037 94.0211 76.2558C93.7555 75.4745 93.6227 74.6268 93.6227 73.7128ZM95.7907 73.4433V73.7128C95.7907 74.3456 95.8649 74.9433 96.0133 75.5058C96.1618 76.0604 96.3844 76.5526 96.6813 76.9823C96.986 77.412 97.3649 77.7518 97.818 78.0018C98.2711 78.244 98.7985 78.3651 99.4 78.3651C99.9938 78.3651 100.513 78.244 100.959 78.0018C101.412 77.7518 101.787 77.412 102.084 76.9823C102.381 76.5526 102.603 76.0604 102.752 75.5058C102.908 74.9433 102.986 74.3456 102.986 73.7128V73.4433C102.986 72.8183 102.908 72.2284 102.752 71.6737C102.603 71.1112 102.377 70.6151 102.072 70.1854C101.775 69.7479 101.4 69.4042 100.947 69.1542C100.502 68.9042 99.9782 68.7792 99.3766 68.7792C98.7828 68.7792 98.2594 68.9042 97.8063 69.1542C97.361 69.4042 96.986 69.7479 96.6813 70.1854C96.3844 70.6151 96.1618 71.1112 96.0133 71.6737C95.8649 72.2284 95.7907 72.8183 95.7907 73.4433Z" fill="#D7D7D7"/>
</svg>
